<?xml version="1.0"?>
<svg xmlns="http://www.w3.org/2000/svg" height="98" width="110"><path style="fill:#04b2e4" d="M 48.06543,0.99999825 C 45.57982,1.0000283 43.283,2.3260083 42.04004,4.4785183 L 1.9326199,73.949218 c -1.24905002,2.1628 -1.24309002,4.82914 0.0156,6.98633 l 7.2539,12.42188 c 1.2472201,2.13582 3.5345101,3.44899 6.0078201,3.44922 l 80.99804,0 c 2.47331,-2.3e-4 4.7606,-1.3134 6.00782,-3.44922 l 7.25195,-12.42188 c 1.25932,-2.15684 1.26603,-4.82318 0.0176,-6.98633 L 69.37597,4.4785183 c -1.24296,-2.15251 -3.53978,-3.47849 -6.02539,-3.47852005 z M 55.70801,26.158078 c 13.24395,0 35.2574,34.0736 27.41016,47.50794 -3.92362,6.71717 -15.66752,9.11487 -27.41135,9.13443 -11.74383,0.0196 -23.48759,-2.33902 -27.41092,-9.13443 -7.84666,-13.59082 14.16816,-47.50794 27.41211,-47.50794 z" /></svg>
